<svg xmlns="http://www.w3.org/2000/svg" width="48" height="48" fill="none" viewBox="0 0 48 48"><title>Accessibility</title><circle cx="24.334" cy="24" r="24" fill="#A849FF" fill-opacity=".3"/><path fill="#A470D5" fill-rule="evenodd" d="M27.8609 11.585C27.8609 9.59506 26.2497 7.99023 24.2519 7.99023C22.254 7.99023 20.6429 9.65925 20.6429 11.585C20.6429 13.575 22.254 15.1799 24.2519 15.1799C26.2497 15.1799 27.8609 13.575 27.8609 11.585ZM21.8922 22.6473C21.8467 23.9096 21.7901 25.4788 21.5897 26.2771C20.9853 29.0462 17.7348 36.3314 17.3325 37.2275C17.1891 37.4923 17.1077 37.7955 17.1077 38.1178C17.1077 39.1519 17.946 39.9902 18.9802 39.9902C19.6587 39.9902 20.253 39.6293 20.5814 39.0889L20.6429 38.9874L24.2841 31.22C24.2841 31.22 27.5529 37.9214 27.9238 38.6591C28.2948 39.3967 28.8709 39.9902 29.7168 39.9902C30.751 39.9902 31.5893 39.1519 31.5893 38.1178C31.5893 37.7951 31.3639 37.4923 31.2205 37.2275L30.878 36.5276C30.4757 35.6315 27.2255 28.3471 26.6211 25.5779C26.4205 24.7796 26.3641 23.2103 26.3186 21.9481C26.2951 21.3437 26.2636 21.0196 26.1906 20.8228C25.8622 20.1824 25.2014 19.746 24.4518 19.746H24.2519C23.5021 19.746 22.8415 20.1824 22.513 20.8228C22.44 21.0196 22.4085 21.3437 22.385 21.9481L21.8922 22.6473Z" clip-rule="evenodd"/><path fill="#A470D5" d="M13.3986 17.8633C13.3986 17.2952 13.8593 16.8346 14.4274 16.8346H34.0759C34.644 16.8346 35.1046 17.2952 35.1046 17.8633C35.1046 18.4314 34.644 18.892 34.0759 18.892H14.4274C13.8593 18.892 13.3986 18.4314 13.3986 17.8633Z"/></svg>