<svg xmlns="http://www.w3.org/2000/svg" width="33" height="32" fill="none" viewBox="0 0 33 32"><g clip-path="url(#clip0_10031_177575)"><mask id="mask0_10031_177575" style="mask-type:luminance" width="33" height="25" x="0" y="4" maskUnits="userSpaceOnUse"><path fill="#fff" d="M32.5034 4.00195H0.503906V28.7758H32.5034V4.00195Z"/></mask><g mask="url(#mask0_10031_177575)"><path fill="#5865F2" d="M27.5928 6.20817C25.5533 5.27289 23.3662 4.58382 21.0794 4.18916C21.0378 4.18154 20.9962 4.20057 20.9747 4.23864C20.6935 4.73863 20.3819 5.3909 20.1637 5.90358C17.7042 5.53558 15.2573 5.53558 12.8481 5.90358C12.6299 5.37951 12.307 4.73863 12.0245 4.23864C12.003 4.20184 11.9614 4.18281 11.9198 4.18916C9.63431 4.58255 7.44721 5.27163 5.40641 6.20817C5.38874 6.21578 5.3736 6.22848 5.36355 6.24497C1.21508 12.439 0.078646 18.4809 0.636144 24.4478C0.638667 24.477 0.655064 24.5049 0.677768 24.5227C3.41481 26.5315 6.06609 27.7004 8.66724 28.7758C8.70884 28.7912 8.75422 28.7758 8.77819 28.7403C9.36738 27.9319 9.90617 27.0827 10.3899 26.1941C10.4151 26.1473 10.3912 26.0917 10.341 26.0749C9.5063 25.7869 8.70758 25.4323 7.94426 25.0205C7.88781 24.9883 7.88402 24.9101 7.93669 24.8738C8.09531 24.7552 8.25393 24.6327 8.40499 24.5088C8.43142 24.4866 8.46916 24.4812 8.50063 24.4947C14.5253 27.3154 21.0705 27.3154 27.0323 24.4947C27.0637 24.4799 27.1015 24.4853 27.1292 24.5075C27.2803 24.6314 27.4389 24.7552 27.5988 24.8738C27.6515 24.9101 27.6489 24.9883 27.5925 25.0205C26.8291 25.4391 26.0304 25.7869 25.1945 26.0736C25.1442 26.0904 25.1216 26.1473 25.1469 26.1941C25.6384 27.0814 26.1772 27.9306 26.7587 28.7403C26.7814 28.7758 26.8281 28.7912 26.8697 28.7758C29.4834 27.7004 32.1347 26.5315 34.8717 24.5227C34.8944 24.5049 34.9096 24.4783 34.9121 24.4491C35.5736 17.6329 33.8765 11.6422 27.6365 6.24624C27.6277 6.22848 27.6126 6.21578 27.5928 6.20817ZM11.4693 21.2041C9.85012 21.2041 8.51549 19.692 8.51549 17.8443C8.51549 15.9966 9.82504 14.4845 11.4693 14.4845C13.1261 14.4845 14.4482 16.0099 14.423 17.8443C14.423 19.692 13.1136 21.2041 11.4693 21.2041ZM21.5839 21.2041C19.9647 21.2041 18.6301 19.692 18.6301 17.8443C18.6301 15.9966 19.9396 14.4845 21.5839 14.4845C23.2407 14.4845 24.5628 16.0099 24.5377 17.8443C24.5377 19.692 23.2407 21.2041 21.5839 21.2041Z"/></g></g><defs><clipPath id="clip0_10031_177575"><rect width="32.5" height="32" fill="#fff" rx="0" transform="translate(.5)"/></clipPath></defs></svg>