<svg xmlns="http://www.w3.org/2000/svg" width="32" height="32" fill="none" viewBox="0 0 32 32"><path fill="#161614" d="M16.0001 0C7.16466 0 0 7.17472 0 16.0256C0 23.1061 4.58452 29.1131 10.9419 31.2322C11.7415 31.3805 12.0351 30.8845 12.0351 30.4613C12.0351 30.0791 12.0202 28.8167 12.0133 27.4776C7.56209 28.447 6.62283 25.5868 6.62283 25.5868C5.89499 23.7345 4.8463 23.2419 4.8463 23.2419C3.39461 22.2473 4.95573 22.2678 4.95573 22.2678C6.56242 22.3808 7.40842 23.9192 7.40842 23.9192C8.83547 26.3691 11.1514 25.6609 12.0645 25.2514C12.2081 24.2156 12.6227 23.5087 13.0803 23.1085C9.52648 22.7032 5.7906 21.3291 5.7906 15.1886C5.7906 13.4389 6.41563 12.0094 7.43916 10.8871C7.27303 10.4834 6.72537 8.85349 7.59415 6.64609C7.59415 6.64609 8.93774 6.21539 11.9953 8.28877C13.2716 7.9337 14.6404 7.75563 16.0001 7.74953C17.3599 7.75563 18.7299 7.9337 20.0075 8.28877C23.0639 6.21539 24.4062 6.64609 24.4062 6.64609C25.2762 8.85476 24.7285 10.4847 24.5624 10.8871C25.587 12.0094 26.2096 13.4389 26.2096 15.1886C26.2096 21.3421 22.4689 22.6984 18.9058 23.0937C19.4787 23.5927 19.9872 24.5742 19.9872 26.0776C19.9872 28.2074 19.9679 29.9251 19.9679 30.4613C19.9679 30.8871 20.2579 31.3869 21.0704 31.2309C27.4225 29.1079 32 23.1048 32 16.0256C32 7.17472 24.8353 0 16.0001 0Z"/></svg>